<?xml version="1.0" standalone="no"?><svg xmlns="http://www.w3.org/2000/svg" viewBox="0 0 1440 320"><path fill="#0099ff" fill-opacity="0.75" d="M0,160L14.1,149.3C28.2,139,56,117,85,101.3C112.9,85,141,75,169,101.3C197.6,128,226,192,254,202.7C282.4,213,311,171,339,165.3C367.1,160,395,192,424,197.3C451.8,203,480,181,508,149.3C536.5,117,565,75,593,85.3C621.2,96,649,160,678,170.7C705.9,181,734,139,762,133.3C790.6,128,819,160,847,192C875.3,224,904,256,932,266.7C960,277,988,267,1016,245.3C1044.7,224,1073,192,1101,160C1129.4,128,1158,96,1186,101.3C1214.1,107,1242,149,1271,181.3C1298.8,213,1327,235,1355,213.3C1383.5,192,1412,128,1426,96L1440,64L1440,320L1425.9,320C1411.8,320,1384,320,1355,320C1327.1,320,1299,320,1271,320C1242.4,320,1214,320,1186,320C1157.6,320,1129,320,1101,320C1072.9,320,1045,320,1016,320C988.2,320,960,320,932,320C903.5,320,875,320,847,320C818.8,320,791,320,762,320C734.1,320,706,320,678,320C649.4,320,621,320,593,320C564.7,320,536,320,508,320C480,320,452,320,424,320C395.3,320,367,320,339,320C310.6,320,282,320,254,320C225.9,320,198,320,169,320C141.2,320,113,320,85,320C56.5,320,28,320,14,320L0,320Z"></path></svg>